/* XPM */
static char *_583240371686[] = {
/* columns rows colors chars-per-pixel */
"64 64 4 1 ",
"  c black",
". c red",
"X c #FC0505",
"o c #0020FF",
/* pixels */
"XXXXX                                                      ooooo",
"XXXXX                                                      ooooo",
"XXXXX                                                      ooooo",
"XXXXX                                                      ooooo",
"XXXXX                                                      ooooo",
"XXXXX                                                      ooooo",
"XXXXX                                                      ooooo",
"XXXXX                                                      ooooo",
"XXXXX                                                      ooooo",
"XXXXX                                                      ooooo",
"XXXXX                                                      ooooo",
"XXXXX                                                      ooooo",
"XXXXX                                                      ooooo",
"XXXXX                                                      ooooo",
"XXXXX                                                      ooooo",
"XXXXX                                                      ooooo",
"XXXXX                                                      ooooo",
"XXXXX                                                      ooooo",
"XXXXX                                                      ooooo",
"XXXXX                                                      ooooo",
"XXXXX                                                      ooooo",
"XXXXX                                                      ooooo",
"XXXXX                                                      ooooo",
"XXXXX                                                      ooooo",
"XXXXX                                                      ooooo",
"XXXXX                                                      ooooo",
"XXXXX                                                      ooooo",
"XXXXX                                                      ooooo",
"XXXXX                                                      ooooo",
"XXXXX                                                      ooooo",
"XXXXX                                                      ooooo",
"XXXXX                                                      ooooo",
"XXXXX                                                      ooooo",
"XXXXX                                                      ooooo",
"XXXXX                                                      ooooo",
"XXXXX                                                      ooooo",
"XXXXX                                                      ooooo",
"XXXXX                                                      ooooo",
"XXXXX                                                      ooooo",
"XXXXX                                                      ooooo",
"XXXXX                                                      ooooo",
"XXXXX                                                      ooooo",
"XXXXX                                                      ooooo",
"XXXXX                                                      ooooo",
"XXXXX                                                      ooooo",
"XXXXX                                                      ooooo",
"XXXXX                                                      ooooo",
"XXXXX                                                      ooooo",
"XXXXX                                                      ooooo",
"XXXXX                                                      ooooo",
"XXXXX                                                      ooooo",
"XXXXX                                                      ooooo",
"XXXXX                                                      ooooo",
"XXXXX                                                      ooooo",
"XXXXX                                                      ooooo",
"XXXXX                                                      ooooo",
"XXXXX                                                      ooooo",
"XXXXX                                                      ooooo",
"XXXXX                                                      ooooo",
"XXXXX                                                      ooooo",
"XXXXX                                                      ooooo",
"XXXXX                                                      ooooo",
"XXXXX                                                      ooooo",
"XXXXX                                                      ooooo"
};
