/* XPM */
static char *_583407642750[] = {
/* columns rows colors chars-per-pixel */
"64 64 100 2 ",
"   c #3C3D2E",
".  c #3A3634",
"X  c #3C3A34",
"o  c #3E3A3A",
"O  c #413F35",
"+  c #423E3B",
"@  c #3F4130",
"#  c #434336",
"$  c #45433C",
"%  c #48463E",
"&  c #474939",
"*  c #4B4B3D",
"=  c #4E503D",
"-  c #51543F",
";  c #54593F",
":  c #464241",
">  c #4A4644",
",  c #4D4B43",
"<  c #4C4748",
"1  c #4E4A49",
"2  c #504E46",
"3  c #524D4B",
"4  c #4F5040",
"5  c #535345",
"6  c #575945",
"7  c #55534B",
"8  c #59564E",
"9  c #575849",
"0  c #5B5B4D",
"q  c #544E50",
"w  c #565251",
"e  c #5A5553",
"r  c #5D5B54",
"t  c #5D5758",
"y  c #5E5A59",
"u  c #605E56",
"i  c #625D5B",
"p  c #5E614D",
"a  c #5F6052",
"s  c #61644D",
"d  c #636355",
"f  c #666955",
"g  c #696C56",
"h  c #65625C",
"j  c #68665E",
"k  c #67695A",
"l  c #6B6B5D",
"z  c #6E7257",
"x  c #6E715C",
"c  c #70745D",
"v  c #655F61",
"b  c #666261",
"n  c #6A6563",
"m  c #6D6A64",
"M  c #6D6768",
"N  c #6E6A69",
"B  c #706E65",
"V  c #726D6C",
"C  c #6F7162",
"Z  c #737365",
"A  c #767965",
"S  c #787B66",
"D  c #75736B",
"F  c #78766E",
"G  c #77796B",
"H  c #7A7A6C",
"J  c #756F70",
"K  c #767271",
"L  c #797573",
"P  c #7D7A74",
"I  c #7C7778",
"U  c #7E7A79",
"Y  c #807E76",
"T  c #827D7C",
"R  c #7E806D",
"E  c #7E8070",
"W  c #81846E",
"Q  c #828275",
"!  c #868875",
"~  c #898A77",
"^  c #85827C",
"/  c #89877E",
"(  c #878878",
")  c #8A8A7D",
"_  c #857F80",
"`  c #868181",
"'  c #8A8583",
"]  c #8C8A84",
"[  c #8E8A89",
"{  c #918D8C",
"}  c #919282",
"|  c #94928C",
" . c #99978D",
".. c #9A9A8D",
"X. c #979391",
"o. c #999593",
"O. c #9C9A94",
"+. c #A19D9B",
"@. c #A5A39B",
"#. c #ADA9A9",
/* pixels */
"G h h h h V N L H H G H G G E G ..} | ) } ) ! W Q ~ Q W R R Q P P D C C Z H [ ] ^ S z A S S B C C Z l Z c Z S S H H m Q S Q c A ",
"h , $ + : N w b n r r y h h d h o.P Z A Y Y Z B B V Z h f m M h 8 5 4 , r h y i u 0 2 f p u i u u u 0 u r u u h u n r m p d p f ",
"m e 3 , + M N v K N m j y d n r { V z Y T Y A Y L L D l f p k r r $ % 5 7 h M n u 5 = d j V M i i m e l d u p 0 d B y n p f a N ",
"n 3 1 , e K N v M N N N L D n y ] z B ^ { Y g F L I Y B 0 0 6 7 e 7 1 # $ 3 e 7 0 l 8 d u m V J B u e u u M l z d u 7 h 4 0 N I ",
"n 1 < , i L n b M J J J U V N v ) m Y T ] Y l m V I I y y r , $ < > > + $ % & * 7 m 3 u i n n M t u 8 0 i J B m a y e a 7 4 d m ",
"h 3 3 w e _ ` T ' _ I V N K N y ) Y Y T ' V B d i i r 0 , * , , < : q + + % * 5 u i t e h m n i h e r r n V M j a 8 1 b r r 9 m ",
"n 1 e w y _ K J J J J M K K N h } T T _ { L v 7 7 7 * # & % $ + > > w < 3 > % * 8 b i i r b i k p i h i u n n n 8 7 3 y 7 8 8 h ",
"r 8 e y t U D D V I J J V I V e ) ' ' [ T I m i e 0 % 7 3 , 3 + 3 1 q 3 > * * * 7 7 w u h i j 7 f n n j u j V u r , > y 4 3 7 a ",
"f 8 q u e V Y V D F m V J K I n } P T _ T T L n y 8 # , 7 3 7 X 3 < < w , 1 e 5 , 2 , d 9 r d 8 9 j n j 8 h n e r 4 , n 3 4 2 a ",
"l & > 7 7 Y B Y L Z m B J K L B @.Y Y / ' T L h r 5 @ * 5 * $ X , > 3 > 5 7 , > 5 8 8 m r e n h 0 a d j 0 a r 8 4 7 7 y 7 4 e V ",
"| ~ ) | [ / V V V L D P J Y T V ' P L Y j n d 0 r a & r 8 , w , P P B Y Z Q ' ^ ^ ^ m d d h D y k m m b h a a , 9 7 , b a a r N ",
"d 2 7 0 n N i i i i ` V _ Y B n V L V m F l p u y 0 8 e , 1 q : T Z Z l d V T _ P ] Z Z Z U T P G Z D K I K Z A f j 8 a t 7 p N ",
"B q u u Y i i i i i _ K _ K I v M V V V I m i i h y 8 7 , 1 3 < T L g j j D K I P [ V Z g F D F x d l m D K m g a n e h r 4 p a ",
"B u v i i V v v v v ' J K _ I J V M M M M L m j h e 7 y 7 3 w 3 ' n x l l F U I I T I D g Z B u H l m Z C C a f K K a a 6 = a C ",
"D i i i V V M v i v _ J I K J M M b i h M J h h e i e y q 3 e 1 ' V Z g D D P Y I ' J U V D I V P Z g f a k C g Z L a m 9 0 N K ",
"F v i i i n J M v M T v v e h 3 j y e t w M n 8 8 i < > : $ 1 X Y r 0 l m M D m m V M _ Y D K n M n u d 5 9 9 4 9 b r a 4 8 7 N ",
"Y i i i i N N i b i { #.#.@.O.o.r 5 8 h y i n r b h T +.o.O.O.o.O.) ! +.+.' ' T P T I T U U T N ' ` Y Q H Z H Z R A A S S ^ ' { ",
"T i i 0 p j j N h u ' T F Z Z h 8 , , i e n v t v b P U _ _ ` Y Y c Y ' X.' T F Z D L ` _ U U b Y L F P D M Z g D Q P D Z P Y ^ ",
"K n i j l m Y u n n ] Q A D Z i 7 & 8 r y n N n J J ` [ _ ` [ ' W W ' O.[ { { / Q ] I / T ' ` N ^ P L ` Q F A c S H P ) ' | [ ' ",
"l 7 0 0 B M v i i t ' F Y B B v , # o $ n v i v v n ' T ` ` P P S W { [ { ' T ^ Y  .Z P L D D I P D L I L m f z d D D Z H ` [ [ ",
"j q t t B j n b h i ' T L L D i , : > w t i y b i b ' ' ` ^ F ` ! ! ] { { _ ' ' ' / B Y P H P N ` L K D N u j D V K L F A Q ] ] ",
"T _ _ T T [ / [ ' ' P Y H U _ I L N N V V n L H B D P T ' / ^ Y Y S T ' { ' { ] ] Q L { [ ^ T P ' Q Q Q Z r i n V K D P B j n P ",
"T Y Y T T T T Y P L V P B D V V N b v M i h n d m V b T P P U I B m P Y I U ^ Y ' ^ l ' ` ^ Q n D D D Z s r w 3 t y e i 8 e 0 n ",
"Y M M T Y T Y Y U I b L k M V m N b v n h h h d m V n L _ T Y I A m Y L T P ^ P ^ Y D ( ` T P l Z P D m d 8 7 1 1 e e w e h e h ",
"Z B Y Y Y Y Y Z T T J _ L H L V K K N N N n m m D D m ' _ _ ' ` Y Y T [ Y T _ T Q ] L ^ ` ^ L G U L m L L 0 5 7 e 7 e i i n m M ",
"Y s j N Y A u B Y J N T ^ M j M N M N y K b n m m d Z P U T T U A Y T Y J L Y D C ' m L D Z f Z m n h N N 8 % e + , 2 7 t t b M ",
"x 8 i i V n j n v M i J V V i r r y e r y v i v y n n D V V N b ) | [ { [ Y Y Y E P m a d 0 6 e a 4 , 0 y e e e 3 > 3 2 5 e h N ",
"A f B V n Y l J J J v Y B P V i N h 8 e b v v n N N P L U T U m  .(  .] ' Y Y K L L n n r 0 8 1 n 7 7 4 7 < > 1 > 2 3 3 2 7 w V ",
"Z N M J L m M M M M i I L m B i h r 8 n n n i v n K J J N M I N +.| ] ^ T I T T U ` a a b t y w r w q , $ : 7 q , : : 7 , r b J ",
"Y N M Y n j J J J V u L b v M r 0 4 r y e b i v M M n J n J V b +.Y ^ ^ ' J T T E D a b n v v q e t w w 3 : , > 1 , : $ $ e e i ",
"T J V J m Z Y Y L M e d h m l h x y h b n M M v v n N n n N J y ] Y Y Y T J Y T P P n N b a t w b e t y q : $ 1 < 1 $ $ o > q n ",
"Y i i i 8 i n M M i 7 d 0 r h 2 G N m M N y y e e t t q t t t w { d F ^ T i v i N h 8 v y t w : b n e N v : . . o : X X X $ o t ",
") Y Y ~ { T T T T Y Z c A Z n i V N B J L b n m V I T V b h n e Y c A F B j D Y ) ] P ^ ` T ` T D i w i i _ { | { [ ^ Q ^ [  ...",
") l Y Y X.Y Y Y Y V n p u r i w V N M B L u 3 7 t i m 8 3 7 -   z z j V j u B Y P ^ B V M h n n i r w t t D m D n m h r i V P L ",
"Y Y Y Y _ T Y m N B n u d g u 8 V n n j M h 5 - 5 7 8 5 * # &   f u Z V V m F T ` P D V V M m r l 8 8 t t D j K J M b u n V L ^ ",
"Y Y T T _ Y j m Y j m m Z j 0 2 h h h u k 0 * * 2 9 0 * 5 7 # $ c u f u V M F T T / m D M B n r h u 7 e w K B P N V n d k h L T ",
"Y Y Z Y T Y m n j J j Y M V 0 * s p p r 8 0 9 7 3 r 2 8 7 3 2 O B u u 8 u j Y L T P j h C d d 5 n i t t t V M m C h n V k k m L ",
"~ Y j Y Y B Y Y J Y J V J n l 7 Z l f m V M y 7 3 e w u u e i + u 6 6 s u j j n D C a k j y 5 , ] { { { ' ^ S F G x a m h n j V ",
") B B Y Y M M J T T Y Y L J B u ] T H H T V b 7 5 e u 7 r u w % 0 9 5 5 d n h j m m 6 k y e h 7 / D T ' T m j L m C a d a a a L ",
") Y Y Y V v M T M T T T L Y D u { { ' ] T V h d u n r 0 6 7 0 % s 6 6 0 8 u B j l f 7 n N D D e } F B T T D H L U G 0 m N P m C ",
"Y Z D m A j r i B J I J T F j i { [ ' ' o.n w 5 e e m 0 7 8 w : d i d * * * 7 9 9 C y h n n n N o.L j l D Z Z ] D f 6 h N N D H ",
"c f u m T i 0 u i m V L Y m B i [ ' ' ' { V u u i h B 8 i i t < n B u 2 4 4 7 0 7 N e y a h N V o.^ U m x C Z ^ g p 6 n N K L D ",
"z 6 7 u u n u j h B m M B B h h T ^ ^ ' _ J u t u 8 7 t e e e 3 i 8 8 * 7 < t e 7 8 e e n n n n ] K F m g d g m m l d j N N n D ",
"i * O < 1 J V m V B l V F V H B | F T T _ L L B h n d B M n M q d r 7 7 e 7 e 7 3 7 e n V V G L F P Z A s f P D G P F D m K K G ",
"V + O + < K n Y K V n m V V L L +.Z P T _ V F h r r u i n n i 1 r w r 3 7 8 1 < 1 q w J v h b C l Z C A x C F H C T U N h l m L ",
"h 1 > 7 3 V V M V L B V d B L M o.F V T L j d m n D d h h r n 7 D b v b 8 5 y e y w q M J n G k Z l Z x G G ^ C C V n J D D m G ",
"u : . O q L i n n M B b Z B e u ' h B D ) h h M M M P d 5 , 7 , i h N i 5 e e e 3 a t v n y a C V K Z g C Z L E C V J n n N D E ",
"i 1 . + e M t u w e i r m e 8 e { h l B Q h h b v n B r * 5 7 7 j D m 8 7 w 1 1 > w < t e w 7 N n m n h a n V U a a v t a v N J ",
"h 3 O > < ' [ ' ^ ^ I M h F B m X.C a a N N M b v b h e 5 = 7 8 n n N a r b D N b y b n n m h b L B J I Y J T T Y P n J M v n K ",
"l O O $ 8 I V B m n h i h u v i | C a L P r w r y n n y 6 8 0 5 d l m h r y n a a a t y e e r a M m V V J V T T B B v M n n V T ",
"h * $ + $ b L V V V u 7 5 , u 8 ( a a N V a n r 7 r e e 0 u n 7 h 9 r n y h N h v t 7 y 8 5 7 0 0 h b D V m B l m F n I n i n I ",
"d 2 3 3 , V V B V m 0 9 r r r 5 E C K K V v b e 8 0 5 8 0 y h e M r r a r b b b M b 7 b r 0 r a j d h m j d s l F L n J n M J I ",
"d 5 2 * $ L M K B j 7 r u i b 7 { V V K N t t 3 > 7 4 , a y r e n 5 e e a b b b n b y M b t y y j M M B 7 d B l M U M J n M j L ",
"] ' ' Y ^ L J v n j Z d h i b e b a b v t t m a j F d C D Z Z Z G Z m V y n n m V L b K K I I C n m b b j P T L D h v _ I L Z F ",
"C 7 8 2 7 8 w w w 3 V 9 j 7 3 , , 2 w 3 a a 8 a d h C f a j m M M D D n a 1 8 v M U M U I U I L b v v v b M M _ h y w J N D L L ",
"Z 6 5 5 0 e w q q w L r r r 8 > , 1 1 w 1 r 5 a h m m n d p d F D G n h h 5 w b N K N U U U U K B v i v m M J J m d r K J N U T ",
"F 9 7 7 w n w t t 3 F 7 * u 3 3 * > & @ 3 a a v y n m F f p a m m h g 0 0 5 a h a b N G K K K a b r y t y y v J M y e D N M d Y ",
"Z p 8 i n i t w e t V 0 0 7 3 $ > + : 3 w i 5 a d C h D g f x p l x p ; ; - 0 0 a h 0 C C J L d a t y e 8 y n n h r 7 V m h F ^ ",
"Z 0 9 u 5 7 0 e w t Y ] X.X.| ] @ > 1 < < a 4 4 a h , d a a p 6 9 6 0 r 0 7 0 r y a y C C m C 6 9 y y t r r 8 7 e i 7 b y h N L ",
"A 0 9 5 7 e , r i 3 F d l K N n 7 > < < < a a 0 y a 7 x C A c p S A R S Q Q Q P P E L T L D m y 9 r v v e e w w y i y ` P Q X.o.",
"H B h u 7 8 y r h n ^ l k K U n v t w 3 % a C N M N v n Z Z A f H F E ^ Q ` [ ' ' E K ` E L L b 4 r 8 h a t w w v y a [ E ^ ` | ",
"S u 0 u n m 0 e y b ` P Q U J b w t w w r n b n n N N N N D D j R ) } ^ P Y ' ^ E ' K L D G P D d # & 4 7 w y h r w v ` L Q [ ] ",
"Z 7 8 8 m r 7 e y i ] U [ U L n q 1 w 0 a n n n h n n h r n D j A Q Q ` Y Q T ^ T ' m G K P L D 7 2 # & > 4 3 r , w w K P G E ] ",
"Z u i j n j y b b N [ Q U ' _ U V b a a b K V n n n V V m b V m Q P E P P E U ` E P D P P P G C C b b a e a y h a n r G G H K ] "
};
