/* XPM */
static char *_593505581272[] = {
/* columns rows colors chars-per-pixel */
"64 64 64 1 ",
"  c black",
". c #560000",
"X c #750000",
"o c #065600",
"O c #0B7500",
"+ c #0C7700",
"@ c #A40000",
"# c #B60000",
"$ c #B70000",
"% c #C40000",
"& c #CA0000",
"* c #CB0000",
"= c #D00000",
"- c #D30000",
"; c #D80000",
": c #D90000",
"> c #DB0000",
", c #DF0000",
"< c #E00000",
"1 c #E20000",
"2 c #E70000",
"3 c #ED0000",
"4 c #F30000",
"5 c #F60000",
"6 c #F80000",
"7 c #F90000",
"8 c #0F8600",
"9 c #129700",
"0 c #15A600",
"q c #16AD00",
"w c #17B000",
"e c #18B600",
"r c #18B700",
"t c #1AC100",
"y c #1BC600",
"u c #1BC700",
"i c #1CCD00",
"p c #1DD000",
"a c #1FD800",
"s c #1FD900",
"d c #20DD00",
"f c #20E000",
"g c #20E200",
"h c #21E300",
"j c #21E400",
"k c #21E500",
"l c #21E600",
"z c #22E800",
"x c #22E900",
"c c #22EA00",
"v c #22EB00",
"b c #22EC00",
"n c #23EC00",
"m c #23ED00",
"M c #23EE00",
"N c #23F000",
"B c #23F100",
"V c #24F100",
"C c #24F400",
"Z c #24F500",
"A c #24F600",
"S c #25F700",
"D c #25F800",
"F c #25F900",
/* pixels */
"                         rVFFFFFFFFFFFAr                        ",
"                       olFFFFFFFFFFFFFFFp                       ",
"                      yFFFFFFFFFFFFFFFFFFi                      ",
"                    qAFFFFFFFFFFFFFFFFFFFFi                     ",
"                  8VFFFFFFFFFFFFFFFFFFFFFFFd                    ",
"                 dFFFFFFFFFFFFFFFFFFFFFFFFFFVO                  ",
"                lFFFFFFFFFFFFFFFFFFFFFFFFFFFFFv9                ",
"              oBFFFFFFFFFFFFFFFFFFFFFFFFFFFFFFFFf8              ",
"             tFFFFFFFFFFFFFFFFFFFFFFFFFFFFFFFFFFFn8             ",
"           ovFFFFFFFFFFFFFFFFFFFFFFFFFFFFFFFFFFFFFn             ",
"         owAFFFFFFFFFFFFFFFFFFFAFFFFFFFFFFFFFFFFFFFv            ",
"        osFFFFFFFFFFFFFFFFFFFFFFFFFFFFFFFFFFFFFFFFFFd           ",
"        uFFFFFFFFFFFFFFFFFFFFFFFFFFFFFFFFFFFFFFFFFFFF0          ",
"       oFFFFFFFFFFFFFFFFFFFFFFFFFFFFFFFFFFFFFFFFFFFFFA          ",
"       rFFFFFFFFFFFFFFFFFFFFFFFFFFFFFFFFFFFFFFFFFFFFFF0         ",
"       rFFFFFFFFFFFFFFFFFFFFFFFFFFFFFFFFFFFFFFFFFFFFFFr         ",
"       0FFFFFFFFFFFFFFFFFFFFFFFFFFFFFFFFFFFFFFFFFFFFFFr         ",
"        MFFFFFFFFFFFFFFFFFFFFFFFFFFFFFFFFFFFFFFFFFFFFFo         ",
"        0AFFFFFFFFFFFFFFFFFFFFFFFFFFFFFFFFFFFFFFFFFFFu          ",
"         0AFFFFFFFFFFFFFFFFFFFFFFFFFFFFFFFFFFFFFFFFFuo          ",
"           0vBBffffffffffffffffffffflllnnBnnMVBnvsuOo           ",
"                                      ooo       ooo             ",
"                                                                ",
"                                                                ",
"                                                                ",
"                                                                ",
"                                                                ",
"                                                                ",
"                                                                ",
"                                                                ",
"                                                                ",
"                                                                ",
"                                                                ",
"                                                                ",
"                                                                ",
"                                                                ",
"                                                                ",
"                                                                ",
"                                                                ",
"                                                                ",
"                                                                ",
"                                                                ",
"                                                                ",
"                                                                ",
"                                                                ",
"                                                                ",
"                                                                ",
"                                                                ",
"                                                                ",
"                                                                ",
"                                                                ",
"                                                                ",
"                                                                ",
"                                                                ",
"                                                                ",
"                                                                ",
"                                 .X@$%%%%%%-><<<<<<<<<<<<<<<<<<<",
"$&>>>-%%%%%%%%%%%%%%%%%%%%%&><<234477777777777777777777777777777",
"7777777777777777777777777777777777777777777777777777777777777777",
"7777777777777777777777777777777777777777777777777777777777777777",
"7777777777777777777777777777777777777777777777777777777777777777",
"7777777777777777777777777777777777777777777777777777777777777777",
"7777777777777777777777777777777777777777777777777777777777777777",
"7777777777777777777777777777777777777777777777777777777777777777"
};
