/* XPM */
static char *_583770715948[] = {
/* columns rows colors chars-per-pixel */
"64 64 174 2 ",
"   c black",
".  c #033C00",
"X  c #01003C",
"o  c #01003E",
"O  c #560000",
"+  c #610000",
"@  c #750000",
"#  c #065600",
"$  c #096800",
"%  c #0C7700",
"&  c #565500",
"*  c #5D5600",
"=  c #616000",
"-  c #757400",
";  c #010056",
":  c #020068",
">  c #020075",
",  c #A40000",
"<  c #B60000",
"1  c #B70000",
"2  c #C40000",
"3  c #CE0000",
"4  c #D00000",
"5  c #D30000",
"6  c #D80000",
"7  c #D90000",
"8  c #DC0000",
"9  c #E50000",
"0  c #E80000",
"q  c #EB0000",
"w  c #ED0000",
"e  c #EF0000",
"r  c #F10000",
"t  c #F30000",
"y  c #F60000",
"u  c #F80000",
"i  c #F90000",
"p  c #F43C00",
"a  c #CF5600",
"s  c #ED6000",
"d  c #E96800",
"f  c #F96000",
"g  c #0F8600",
"h  c #119100",
"j  c #129700",
"k  c #139C00",
"l  c #15A500",
"z  c #16AD00",
"x  c #18B600",
"c  c #1ABF00",
"v  c #1BC400",
"b  c #1BC700",
"n  c #1DD000",
"m  c #1ED500",
"M  c #20E200",
"N  c #21E200",
"B  c #22E800",
"V  c #22EA00",
"C  c #22EC00",
"Z  c #23EE00",
"A  c #23EF00",
"S  c #24F400",
"D  c #25F700",
"F  c #25F800",
"G  c #25F900",
"H  c #26F900",
"J  c #28F900",
"K  c #2CF800",
"L  c #39F700",
"P  c #25F810",
"I  c #1BC725",
"U  c #25F724",
"Y  c #24F535",
"T  c #24F43D",
"R  c #6DC700",
"E  c #5CEF00",
"W  c #6FE800",
"Q  c #7DE200",
"!  c #1CC75F",
"~  c #23EF52",
"^  c #23EE56",
"/  c #868500",
"(  c #979600",
")  c #A1A000",
"_  c #A4A300",
"`  c #ADAC00",
"'  c #B6B500",
"]  c #B7B600",
"[  c #B0BF00",
"{  c #DC8600",
"}  c #CF9C00",
"|  c #D69100",
" . c #F98500",
".. c #C8A500",
"X. c #C2AD00",
"o. c #D3A000",
"O. c #C0BF00",
"+. c #F9A000",
"@. c #F9B600",
"#. c #95C400",
"$. c #9CD000",
"%. c #A7C700",
"&. c #ABC400",
"*. c #C4C300",
"=. c #CAC900",
"-. c #D0CF00",
";. c #D9D800",
":. c #DBDA00",
">. c #F9C900",
",. c #F9DA00",
"<. c #E5E400",
"1. c #E6E400",
"2. c #E7E500",
"3. c #E9E800",
"4. c #EFED00",
"5. c #EFEE00",
"6. c #F2EA00",
"7. c #F7E800",
"8. c #F0EE00",
"9. c #F9EA00",
"0. c #F2F100",
"q. c #F3F100",
"w. c #F3F200",
"e. c #F5F400",
"r. c #F6F400",
"t. c #F6F500",
"y. c #F7F600",
"u. c #F8F600",
"i. c #F8F700",
"p. c #F9F700",
"a. c #F9F800",
"s. c #F9F805",
"d. c #EDEC19",
"f. c #F7F624",
"g. c #EFED54",
"h. c #CAC975",
"j. c #E2E075",
"k. c #E3E275",
"l. c #040097",
"z. c #0400A4",
"x. c #0500B2",
"c. c #0600B6",
"v. c #0600B7",
"b. c #0600BF",
"n. c #0A5695",
"m. c #0700C4",
"M. c #0700C6",
"N. c #0800D0",
"B. c #0800D5",
"V. c #0900DD",
"C. c #0900DF",
"Z. c #0A00E8",
"A. c #0A00EB",
"S. c #0B00F1",
"D. c #0B00F5",
"F. c #0B00F6",
"G. c #0B00F7",
"H. c #0B00F8",
"J. c #0B00F9",
"K. c #0F56EE",
"L. c #1AB690",
"P. c #1BB7AA",
"I. c #1BB7B7",
"U. c #20D98A",
"Y. c #1697D1",
"T. c #19A6C6",
"R. c #8685A1",
"E. c #B8B6B7",
"W. c #DBDA86",
"Q. c #D0CF99",
"!. c #CAC9A1",
"~. c #C4C3A9",
"^. c #8785DB",
"/. c #ADACC1",
/* pixels */
"                                                                                                                                ",
"                                                                                                                                ",
"                                                                                                                                ",
"                                                                                                                                ",
"                                                                                                                                ",
"                                                                                                                                ",
"                                                                                                                                ",
"                                                                                                                                ",
"                                                                                                                                ",
"                                                                                                                                ",
"                                                                                                                                ",
"                                                                                                                                ",
"                                                                                                                                ",
"                                    + 2 4 6 2 2 2 2 2 2 2 2 2 < , @ O                                                           ",
"                                + 3 t i i i i i i i i i i i i i i y t e e q q q q 8 <                                           ",
"                            . * a p i i i i i i i i i i i i i i i i i i i i i i i i i i 1                                       ",
"                        . $ l R %...d p i i i i i i i i i i i i i i i i i i i i i i i i i <                                     ",
"                      . k M G G G G Q } p i i i i i i i i i i i i i i i i i i i i i f  . .f                                     ",
"                      h V G G G G G G W | i i i i i i i i i i i i i i i i i i i f +.>.,.,.>.o.=                                 ",
"                    . n G G G G G G G G $.p i i i i i i i i i i i i i i i i i f @.9.a.a.a.a.6.' =                               ",
"                    g A G G G G G G G G E { i i i i i i i i i i i i i i i i i +.9.a.a.a.a.a.a.w.)                               ",
"                    z D G G G G G G G G L X.i i i i i i i i i i i i i i i i f >.a.a.a.a.a.a.a.a.3.=                             ",
"                    c D G G G G G G G G K [ i i i i i i i i i i i i i i i i  .,.a.a.a.a.a.a.a.a.a.`                             ",
"                    v G G G G G G G G G J &.i i i i i i i i i i i i i i i i  .9.a.a.a.a.a.a.a.a.a.3.                            ",
"                    v G G G G G G G G G G #.2 2 2 2 2 2 2 2 2 4 6 9 q q q q s 7.a.a.a.a.a.a.a.a.a.r./                           ",
"                    v G G G G G G G G G G v                                   1.a.a.a.a.a.a.a.a.a.p.`                           ",
"                    x G G G G G G G G G G m                                   O.a.a.a.a.a.a.a.a.a.a.:.                          ",
"                    j D G G G G G G G G G V                                   ( p.a.a.a.a.a.a.a.a.a.8.                          ",
"                    # D D G G G G G G G G D #                                 & w.a.a.a.a.a.a.a.a.a.r./                         ",
"                      V G G G G G G G G D D j                                   1.a.a.a.a.a.a.a.a.a.p.`                         ",
"                      m G G G G G G G G G D x                                   =.a.a.a.a.a.a.a.a.a.p.*.                        ",
"                      v G G G G G G G G G G v                                   *.a.a.a.a.a.a.a.a.a.p.*.                        ",
"                      v G G G G G G G G G G v                                   *.a.a.a.a.a.a.a.a.a.a.*.                        ",
"                      v G G G G G G G G G G v                                   ' r.a.a.a.a.a.a.a.a.a.-.                        ",
"                      v G G G G G G G G G G v                                   _ p.a.a.a.a.a.a.a.a.a.;.                        ",
"                      v G G G G G G G G G G v                                   - r.a.a.a.a.a.a.a.a.a.2.                        ",
"                      n G G G G G G G G G P L.m.m.m.m.m.m.v.z.> ;               & w.p.a.a.a.a.a.a.a.a.5.                        ",
"                      N G G G G G G G G G U Y.H.H.H.J.H.J.H.H.H.S.A.V.B.m.m.c.z.> d.a.a.a.a.a.a.a.a.a.r.&                       ",
"                      A G G G G G G G G G Y K.J.J.J.J.J.J.J.J.J.H.H.J.J.H.H.H.H.H.j.a.a.a.a.a.a.a.a.a.r.(                       ",
"                    # A G G G G G G G G G ^ J.J.J.J.J.J.J.J.J.J.H.H.J.J.J.H.H.H.J.Q.a.a.a.a.a.a.a.a.a.p.'                       ",
"                    # N G G G G G G G G G U.H.H.J.J.J.J.J.J.J.J.H.J.J.J.J.J.J.J.J.~.s.a.a.a.a.a.a.a.a.p.*.                      ",
"                    # b G G G G G G G G G T.J.H.J.J.J.J.J.J.J.J.J.J.J.J.J.J.J.J.J./.f.a.a.a.a.a.a.a.a.r.`                       ",
"                      % G G G G G G G G ^ J.J.J.J.J.J.J.J.J.J.J.J.J.J.J.J.J.J.J.J.^.g.a.a.a.a.a.a.a.a.5./                       ",
"                      # I G G G G G G T T.J.J.J.J.J.J.J.J.J.J.J.J.J.J.J.J.J.J.J.J.J.!.a.a.a.a.a.a.a.a.h.                        ",
"                        # ! G G G G ^ T.J.J.J.J.J.J.J.J.J.J.H.H.J.J.J.J.J.J.J.J.J.J.^.k.a.a.a.a.a.a.j.R.                        ",
"                          X n.P.I.T.H.H.J.J.J.J.J.H.J.J.J.J.J.H.J.J.J.J.J.J.J.J.J.J.J.^.W.a.a.a.a.W.^.v.                        ",
"                            X : m.Z.D.H.J.J.J.J.H.H.H.H.J.J.H.H.J.H.H.H.J.J.J.J.J.J.J.J.J.^.E.E.^.J.H.                          ",
"                                X ; l.c.m.m.m.m.m.m.m.m.m.B.V.A.D.D.H.H.J.J.J.J.J.J.J.J.J.J.J.J.J.H.v.                          ",
"                                                                ; > z.c.m.m.B.V.A.S.H.H.H.D.J.J.J.v.                            ",
"                                                                                  ; > z.m.Z.B.v.                                ",
"                                                                                                                                ",
"                                                                                                                                ",
"                                                                                                                                ",
"                                                                                                                                ",
"                                                                                                                                ",
"                                                                                                                                ",
"                                                                                                                                ",
"                                                                                                                                ",
"                                                                                                                                ",
"                                                                                                                                ",
"                                                                                                                                ",
"                                                                                                                                ",
"                                                                                                                                ",
"                                                                                                                                "
};
