/* XPM */
static char *_593684618394[] = {
/* columns rows colors chars-per-pixel */
"64 64 109 2 ",
"   c #F90000",
".  c #F94F00",
"X  c #F95E00",
"o  c #F96C00",
"O  c #F96F00",
"+  c #F97D00",
"@  c #F97F00",
"#  c #F98B00",
"$  c #F99700",
"%  c #F9A800",
"&  c #F9AA00",
"*  c #F9B500",
"=  c #F9C000",
"-  c #F9C500",
";  c #F9C700",
":  c #F9C900",
">  c #F9CC00",
",  c #F9CE00",
"<  c #F9D000",
"1  c #F9D200",
"2  c #F9D400",
"3  c #F9D600",
"4  c #F9D700",
"5  c #F9DA00",
"6  c #F9DB00",
"7  c #F9DC00",
"8  c #F9DD00",
"9  c #F9DE00",
"0  c #F9DF00",
"q  c #F9E100",
"w  c #F9E200",
"e  c #F9E300",
"r  c #F9E400",
"t  c #F9E500",
"y  c #F9E600",
"u  c #F9E700",
"i  c #F9E701",
"p  c #F9E702",
"a  c #F9E606",
"s  c #F9E607",
"d  c #F9E608",
"f  c #F9E609",
"g  c #F9E60B",
"h  c #F9E60D",
"j  c #F9E610",
"k  c #F8E614",
"l  c #F8E616",
"z  c #F8E51C",
"x  c #F8E51E",
"c  c #F7E427",
"v  c #F8E520",
"b  c #F6E42C",
"n  c #F6E42F",
"m  c #F5E332",
"M  c #F5E333",
"N  c #F5E335",
"B  c #F4E23B",
"V  c #F1DF4A",
"C  c #EFDD52",
"Z  c #EDDB5B",
"A  c #EEDC58",
"S  c #ECDA5F",
"D  c #F0DE51",
"F  c #F3E142",
"G  c #F3E043",
"H  c #DFCE7F",
"J  c #EBDA60",
"K  c #E7D56D",
"L  c #E8D769",
"P  c #E5D372",
"I  c #E5D472",
"U  c #E0D07C",
"Y  c #0B00F9",
"T  c #0C00F9",
"R  c #0D00F9",
"E  c #0E00F9",
"W  c #1000F9",
"Q  c #1100F9",
"!  c #1200F9",
"~  c #1300F9",
"^  c #1500F9",
"/  c #1900F8",
"(  c #1F00F8",
")  c #2700F7",
"_  c #2000F8",
"`  c #2300F8",
"'  c #3000F6",
"]  c #3200F6",
"[  c #3500F5",
"{  c #3600F5",
"}  c #5B00ED",
"|  c #4B00F1",
" . c #6300EB",
".. c #7700E3",
"X. c #7D00E0",
"o. c #574FEE",
"O. c #766CE3",
"+. c #796FE2",
"@. c #8A7FD9",
"#. c #B6A8B8",
"$. c #CDBD9E",
"%. c #C7B7A6",
"&. c #C4B5A9",
"*. c #DDCC84",
"=. c #D9C989",
"-. c #D0C099",
";. c #978BD1",
":. c #A497C8",
">. c #ADA0C1",
/* pixels */
"Y Y Y Y *.u u u u u u u u u u +                                                             o , u u u u u u u u b O.Y Y Y Y Y Y ",
"Y Y Y Y =.u u u u u u u u u e $                                                             # 9 u u u u u u u u p %.Y Y Y Y Y Y ",
"Y Y Y Y -.u u u u u u u u u u %                                                             # w u u u u u u u u p I Y Y Y Y Y Y ",
"Y Y Y Y &.u u u u u u u u u u *                                                             X w u u u u u u u u p A o.Y Y Y Y Y ",
"Y Y Y Y &.s u u p p p p u u u *                                                               9 u u u u u u u u u F o.Y Y Y Y Y ",
"Y Y Y Y &.g u u p p p p u u u *                                                               2 u u u u u u u u u b O.Y Y Y Y Y ",
"Y Y Y Y #.g u u p p p p p p u *                                                               , u u u u u u u u u z ;.Y Y Y Y Y ",
"Y Y Y Y #.g u u p p p p p p p -                                                               = u u u u u u u u u g #.Y Y Y Y T ",
"Y Y Y Y #.g p p p p p p p p p =                                                               % u u u u u u u u u u -.Y Y Y Y Q ",
"Y Y Y Y %.g p p p p p p p p p *                                                               $ u u u u u u u u u u =.Y Y Y Y _ ",
"Y Y Y Y &.d p p p p p p u u u *                                                               @ e u u u u u u u u u U Y Y Y Y ] ",
"Y Y Y Y &.s p p p p p p u u u *                                                               o e u u u u u u u u u I Y Y Y Y | ",
"Y Y Y Y &.g p p p p p p u u u *                                                               . 9 u u u u u u u u u L Y Y Y Y  .",
"Y Y Y Y &.h p p p p p p u u u *                                                                 9 u u u u u u u u u J Y Y Y Y ..",
"Y Y Y Y >.l p p p p p p p p u -                                                                 5 u u u u u u u u u J Y Y Y Y X.",
"Y Y Y Y ;.z p p p p p p p p p ,                                                                 5 u u u u u u u u u J Y Y Y Y X.",
"Y Y Y Y O.c u u u u u u u u u 2                                                                 5 u u u u u u u u u J Y Y Y Y X.",
"Y Y Y Y @.M u u u u u u u u u ,                                                                 5 u u u u u u u u u J Y Y Y Y X.",
"Y Y Y Y @.N u u u u u u u u u 1                                                                 5 u u u u u u u u u Z Y Y Y Y X.",
"Y Y Y Y @.N u u u u u u u u u ,                                                                 5 u u u u u u u u u C Y Y Y Y X.",
"Y Y Y Y @.B u u u u u u u u u 1                                                                 3 u u u u u u u u u V o.Y Y Y ..",
"Y Y Y Y O.F u u u u u u u u u 1                                                                 3 u u u u u u u u u F O.Y Y Y } ",
"Y Y Y Y o.V u u u u u u u u u 2                                                                 , u u u u u u u u u B @.Y Y Y { ",
"Y Y Y Y Y C u u u u u u u u u 6                                                                 < u u u u u u u u u N @.Y Y Y ^ ",
"Y Y Y Y Y Z u u u u u u u u u 6                                                                 , u u u u u u u u u M @.Y Y Y Y ",
"Y Y Y Y Y J u u u u u u u u u 6                                                                 < u u u u u u u u u M @.Y Y Y Y ",
"Y Y Y Y Y J u u u u u u u u u 6                                                                 < p u u u u u u u u M @.Y Y Y Y ",
"Y Y Y Y Y J u u u u u u u u u 6                                                                 < p u u u u u u u u M @.Y Y Y Y ",
"Y Y Y Y Y J u u u u u u u u u 6                                                                 < p p p u u u u u u M @.Y Y Y Y ",
"Y Y Y Y Y J u u u u u u u u u 9                                                                 < p p p u u u u u u b @.Y Y Y Y ",
"Y Y Y Y Y L u u u u u u u u u w .                                                               < p p p u u u u u u M @.Y Y Y Y ",
"Y Y Y Y Y H u u u u u u u u u u #                                                               < p p p u u u u u u M @.Y Y Y Y ",
"Y Y Y Y T -.u u u u u u u u u u &                                                               < p p p p p p p p p M @.Y Y Y Y ",
"Y Y Y Y T %.u u u u u u u u u t *                                                               < p p p p p p p p p N @.Y Y Y Y ",
"Y Y Y Y Y %.d u u u u u u u u u *                                                               < p p p p p p p p p m @.Y Y Y Y ",
"Y Y Y Y Y &.p u u u u u u u u t *                                                               < p p p p p p p p p m ;.Y Y Y Y ",
"Y Y Y Y Y #.u u u u u u u u u u *                                                               < p p p p p p p u u m @.Y Y Y Y ",
"T T Y Y Y -.u u u u u u u u u t *                                                               < p p p p p p p u u m @.Y Y Y Y ",
"W Y Y Y Y #.s u u u u u u u u u *                                                               < p p p p p p p u u m @.Y Y Y Y ",
"W Y Y Y Y #.s u u u u u u u u t *                                                               < p p p p p p p u u m @.Y Y Y Y ",
"^ T Y Y Y &.h p u u u u u u u u *                                                               < u u u u u u u u u m @.Y Y Y Y ",
"/ T Y Y Y %.f p u u u u u u u t *                                                               < u u u u u u u u u m @.Y Y Y Y ",
"( Y Y Y Y &.f p u u u u u u u u *                                                               < u u u u u u u u u m @.Y Y Y Y ",
") Y Y Y Y %.p p u u u u u u u t *                                                               < u u u u u u u u u m @.Y Y Y Y ",
"' Y Y Y Y &.f p u u u u u u u u *                                                               < u u u u u u u u u m @.Y Y Y Y ",
"[ Y Y Y Y &.a p u u u u u u u t *                                                               < u u u u u u u u u m @.Y Y Y Y ",
"[ Y Y Y E #.a p u u u u u u u t *                                                               < u u u u u u u u u m @.Y Y Y Y ",
"[ Y Y Y E %.a p u u u u u u u t *                                                               < u u u u u u u u u m @.Y Y Y Y ",
"[ Y Y Y Y %.f p p p p p p p p p *                                                               < u u u u u u u u u m @.Y Y Y Y ",
"[ Y Y Y Y $.p p p p p p p p p p *                                                               < u u u u u u u u u m @.Y Y Y Y ",
"[ Y Y Y Y #.p p p p p p p p p p *                                                               < u u u u u u u u u m @.Y Y Y Y ",
"[ Y Y Y Y %.f p p p p p p p p u *                                                               < u u u u u u u u u m @.Y Y Y Y ",
"' Y Y Y Y $.f p u u u u p p p u *                                                               < u u u u u u u u u m @.Y Y Y Y ",
"` Y Y Y Y %.p p u u u u p p u u *                                                               < u u u u u u u u u m @.Y Y Y Y ",
"! Y Y Y Y $.p p u u u u u u u u *                                                               < u u u u u u u u u m @.Y Y Y Y ",
"E Y Y Y Y #.f p u u u u u u u u *                                                               < u u u u u u u u u m @.Y Y Y Y ",
"Y Y Y Y Y $.d u u u u u u u u u *                                                               1 u u u u u u u u u m @.Y Y Y Y ",
"Y Y Y Y Y #.d u u u u u u u u u *                                                               1 u u u u u u u u u m @.Y Y Y Y ",
"Y Y Y Y Y %.h u u u u u u u u u *                                                               , t u u u u u u u u m @.Y Y Y Y ",
"Y Y Y Y Y #.k u u u u u u u u u =                                                               1 u u u u u u u u u N @.Y Y Y Y ",
"Y Y Y Y Y :.v u u u u u u u u u :                                                               1 u u u u u u u t t G ;.Y Y Y Y ",
"Y Y Y Y Y O.m u u u u u u u u u 2                                                               6 t u u u u u u t e G O.Y Y Y Y ",
"Y Y Y Y Y o.J u u u u u u u u u -                                                             . e u u u u u u u u u C o.Y Y Y Y ",
"Y Y Y Y Y Y -.u u u u u u u u u &                                                             # t u u u u u u u u u K Y Y Y Y Y "
};
